<mxfile host="app.diagrams.net" agent="Mozilla/5.0 (Windows NT 10.0; Win64; x64) AppleWebKit/537.36 (KHTML, like Gecko) Chrome/135.0.0.0 Safari/537.36 Edg/135.0.0.0" version="26.2.9">
  <diagram name="第 1 页" id="zaXw_4VN6VVXadS_qhsG">
    <mxGraphModel dx="437" dy="360" grid="1" gridSize="10" guides="1" tooltips="1" connect="1" arrows="1" fold="1" page="1" pageScale="1" pageWidth="1654" pageHeight="1169" math="0" shadow="0">
      <root>
        <mxCell id="0" />
        <mxCell id="1" parent="0" />
        <mxCell id="rZ5F81kfXn5l0gjK47YO-1" value="" style="rounded=0;whiteSpace=wrap;html=1;strokeColor=#FF3333;" vertex="1" parent="1">
          <mxGeometry x="90" y="70" width="290" height="50" as="geometry" />
        </mxCell>
        <mxCell id="rZ5F81kfXn5l0gjK47YO-2" value="initBufferSize" style="text;html=1;align=center;verticalAlign=middle;resizable=0;points=[];autosize=1;strokeColor=none;fillColor=none;" vertex="1" parent="1">
          <mxGeometry x="340" y="40" width="90" height="30" as="geometry" />
        </mxCell>
        <mxCell id="rZ5F81kfXn5l0gjK47YO-9" value="" style="group" vertex="1" connectable="0" parent="1">
          <mxGeometry x="280" y="70" width="70" height="120" as="geometry" />
        </mxCell>
        <mxCell id="rZ5F81kfXn5l0gjK47YO-4" value="&lt;font style=&quot;color: rgb(255, 51, 255);&quot;&gt;write&lt;span style=&quot;background-color: transparent;&quot;&gt;Pos&lt;/span&gt;&lt;/font&gt;" style="text;html=1;align=center;verticalAlign=middle;resizable=0;points=[];autosize=1;strokeColor=none;fillColor=none;" vertex="1" parent="rZ5F81kfXn5l0gjK47YO-9">
          <mxGeometry y="90" width="70" height="30" as="geometry" />
        </mxCell>
        <mxCell id="rZ5F81kfXn5l0gjK47YO-6" value="" style="endArrow=none;html=1;rounded=0;strokeColor=#FF33FF;" edge="1" parent="rZ5F81kfXn5l0gjK47YO-9">
          <mxGeometry width="50" height="50" relative="1" as="geometry">
            <mxPoint x="30" y="90" as="sourcePoint" />
            <mxPoint x="30" as="targetPoint" />
          </mxGeometry>
        </mxCell>
        <mxCell id="rZ5F81kfXn5l0gjK47YO-10" value="" style="group" vertex="1" connectable="0" parent="1">
          <mxGeometry x="130" y="70" width="70" height="120" as="geometry" />
        </mxCell>
        <mxCell id="rZ5F81kfXn5l0gjK47YO-3" value="&lt;font style=&quot;color: rgb(0, 255, 0);&quot;&gt;readPos&lt;/font&gt;" style="text;html=1;align=center;verticalAlign=middle;resizable=0;points=[];autosize=1;strokeColor=none;fillColor=none;" vertex="1" parent="rZ5F81kfXn5l0gjK47YO-10">
          <mxGeometry y="90" width="70" height="30" as="geometry" />
        </mxCell>
        <mxCell id="rZ5F81kfXn5l0gjK47YO-5" value="" style="endArrow=none;html=1;rounded=0;strokeColor=#00FF00;" edge="1" parent="rZ5F81kfXn5l0gjK47YO-10">
          <mxGeometry width="50" height="50" relative="1" as="geometry">
            <mxPoint x="30" y="90" as="sourcePoint" />
            <mxPoint x="30" as="targetPoint" />
          </mxGeometry>
        </mxCell>
        <mxCell id="rZ5F81kfXn5l0gjK47YO-11" value="BeginPtr_" style="text;html=1;align=center;verticalAlign=middle;resizable=0;points=[];autosize=1;strokeColor=none;fillColor=none;" vertex="1" parent="1">
          <mxGeometry x="50" y="28" width="80" height="30" as="geometry" />
        </mxCell>
      </root>
    </mxGraphModel>
  </diagram>
</mxfile>
